<svg width="160" height="40" viewBox="0 0 160 40" fill="none" xmlns="http://www.w3.org/2000/svg">
<path d="M45.4451 28.2657C47.4693 28.2657 49.3102 27.5979 50.7592 26.4711C51.3117 26.0337 51.4033 25.2054 50.9896 24.6293C50.5296 24.0776 49.6777 23.986 49.1487 24.3762C48.1135 25.2054 46.8705 25.6418 45.4442 25.6418C43.8565 25.6418 42.3839 24.9985 41.3033 23.986C40.7705 23.4642 40.3475 22.8413 40.0589 22.1537C39.7703 21.4661 39.6221 20.7278 39.623 19.9821C39.623 18.4179 40.2672 17.037 41.3033 15.9791C42.3839 14.9665 43.8565 14.3224 45.4442 14.3224C46.8714 14.3224 48.1362 14.7588 49.1487 15.588C49.6777 16.0018 50.5296 15.9101 50.9896 15.3349C51.1912 15.0557 51.2796 14.7104 51.2368 14.3687C51.1941 14.0269 51.0234 13.7141 50.7592 13.4931C49.3102 12.3671 47.4684 11.6994 45.4442 11.6994C40.8424 11.7221 37.0236 15.4265 37 19.983C37.0236 24.5612 40.8424 28.2657 45.4442 28.2657H45.4451ZM53.6152 13.425V27C53.6152 27.6896 54.1904 28.2657 54.8809 28.2657C55.594 28.2657 56.1684 27.6896 56.1684 27V13.425C56.1684 12.7346 55.594 12.1594 54.88 12.1594C54.1904 12.1594 53.6152 12.7346 53.6152 13.425ZM64.0173 28.2657C65.6505 28.2657 67.0086 27.7821 68.1355 26.7469C68.6645 26.2633 68.4349 25.5737 68.1355 25.2508C67.8361 24.8833 66.8934 24.8143 66.4099 25.3206C65.8346 25.757 64.8457 25.9648 64.0173 25.8958C63.2116 25.826 62.2916 25.4123 61.8089 24.8597C61.3943 24.4687 61.1412 23.8708 61.0259 23.3409H68.3424C68.9866 23.3409 69.4702 22.9734 69.5391 22.4209C69.5618 22.3755 69.5618 22.2603 69.5618 22.214V22.0988C69.3785 18.9931 67.0086 16.7612 64.0173 16.7612C60.8645 16.7612 58.4256 19.3842 58.403 22.5134C58.4256 25.6427 60.8645 28.2421 64.0173 28.2657ZM64.0173 18.9469C66.0188 19.1083 67.192 20.4657 67.4224 21.3857H60.9107C61.0949 20.443 62.0612 19.0385 64.0173 18.9469ZM80.0564 17.0597C79.4585 16.7839 78.7681 17.106 78.5149 17.7274L75.8457 23.986L73.2 17.7274C72.9241 17.106 72.2101 16.7847 71.6585 17.0597C71.0143 17.3364 70.7149 18.0033 70.9907 18.6248L74.7179 27.5517C74.7415 27.6215 74.7642 27.6905 74.8104 27.7132C74.8104 27.7359 74.8104 27.7359 74.8331 27.7359C74.879 27.784 74.9177 27.8383 74.9483 27.8973C74.9719 27.92 74.9719 27.92 74.9946 27.92C75.0409 27.9899 75.0863 28.0126 75.1325 28.058C75.1325 28.058 75.1561 28.058 75.1561 28.0815C75.2477 28.1278 75.294 28.1732 75.363 28.1967H75.4092V28.2194C75.4782 28.2194 75.5236 28.2421 75.5925 28.2657H75.8457C75.9207 28.2889 76.001 28.2889 76.0761 28.2657H76.1224C76.1793 28.2369 76.2419 28.2211 76.3057 28.2194V28.1967H76.3519C76.4143 28.1721 76.4698 28.1325 76.5134 28.0815C76.5134 28.058 76.5361 28.058 76.5361 28.058C76.5824 28.0126 76.6278 27.989 76.674 27.92C76.674 27.92 76.6976 27.92 76.6976 27.8973C76.743 27.8511 76.7892 27.7821 76.8355 27.7359C76.8355 27.7359 76.8582 27.7359 76.8582 27.7132C76.899 27.6657 76.9304 27.6109 76.9507 27.5517L80.7233 18.6248C81 18.0033 80.7006 17.3364 80.0564 17.0597ZM92.0463 28.2657C94.0015 28.2657 95.8197 27.5979 97.2696 26.4711C97.4991 26.3096 97.637 26.1254 97.706 25.9185V25.8958C97.7296 25.8496 97.7296 25.826 97.7523 25.7806C97.7758 25.6427 97.8221 25.5502 97.8221 25.3896V20.3033C97.8221 19.5675 97.2233 19.0149 96.4866 19.0149H96.4639H91.9083C91.1952 19.0149 90.5964 19.5675 90.5964 20.3033C90.5964 21.0165 91.1952 21.6152 91.9083 21.6152H95.1991V24.7663C94.2782 25.2962 93.1967 25.6418 92.0463 25.6418C90.3895 25.6418 88.9406 25.0203 87.9045 23.9615C86.823 22.9263 86.1788 21.5227 86.1788 20.0048C86.1788 18.4397 86.823 17.037 87.9045 16.0009C88.9406 14.9421 90.3895 14.3215 92.0463 14.3215C93.4272 14.3215 94.6919 14.8042 95.6818 15.5636C95.9577 15.7799 96.3074 15.8795 96.6558 15.8408C97.0043 15.8021 97.3237 15.6283 97.5454 15.3567C97.9818 14.7806 97.8902 13.9304 97.2923 13.4931C95.866 12.3654 94.0015 11.6985 92.0463 11.6985C87.3764 11.6985 83.5558 15.3794 83.5558 20.0048C83.5558 24.6057 87.3755 28.2657 92.0463 28.2657ZM111.146 23.4797V17.9806C111.146 17.3364 110.548 16.7612 109.904 16.7612C109.213 16.7612 108.707 17.3364 108.707 17.9806V23.4797C108.684 24.7908 107.625 25.8269 106.291 25.8269C105.982 25.8294 105.675 25.7704 105.389 25.6533C105.104 25.5362 104.844 25.3633 104.625 25.1448C104.407 24.9262 104.234 24.6663 104.117 24.3803C104 24.0943 103.942 23.7878 103.944 23.4788V17.9797C103.944 17.3364 103.415 16.7612 102.725 16.7612C102.057 16.7612 101.505 17.3364 101.505 17.9806V23.4797C101.505 26.1027 103.668 28.2657 106.291 28.2657C108.937 28.2657 111.146 26.1027 111.146 23.4797ZM124.562 18.0033C124.562 17.3137 124.01 16.7612 123.342 16.7612C122.744 16.7612 122.284 17.1976 122.147 17.7737C121.272 17.1522 120.237 16.7612 119.086 16.7612C117.521 16.7612 116.164 17.4281 115.175 18.4869C114.185 19.5221 113.61 20.9484 113.61 22.5361C113.61 24.1012 114.186 25.5275 115.175 26.5863C115.677 27.1192 116.283 27.5433 116.956 27.8322C117.629 28.1211 118.354 28.2686 119.086 28.2657C120.185 28.2657 121.256 27.9193 122.147 27.2759C122.284 27.8284 122.744 28.2657 123.342 28.2657C124.01 28.2657 124.563 27.7132 124.563 27.0463L124.562 18.0033ZM121.226 24.906C120.947 25.1913 120.615 25.4177 120.247 25.5719C119.88 25.726 119.485 25.8047 119.086 25.8033C118.258 25.8033 117.476 25.4812 116.947 24.906C116.394 24.3081 116.072 23.4797 116.072 22.5361C116.072 21.5699 116.394 20.7415 116.947 20.1663C117.476 19.5448 118.258 19.2236 119.086 19.2236C119.891 19.2236 120.674 19.5448 121.226 20.1663C121.778 20.7415 122.123 21.5699 122.123 22.5361C122.123 23.4788 121.778 24.3081 121.226 24.906ZM133.929 16.7839C132.778 16.7612 131.789 17.1749 131.031 17.6812C130.853 17.8162 130.691 17.9705 130.547 18.1412V17.9806C130.547 17.3128 129.971 16.7847 129.281 16.7847C128.614 16.7847 128.062 17.3128 128.062 17.9806V27.0463C128.062 27.7132 128.614 28.2657 129.281 28.2657C129.971 28.2657 130.547 27.7132 130.547 27.0463C130.547 23.9313 129.625 19.7796 133.929 19.2C134.619 19.2 135.149 18.6239 135.149 17.9806C135.149 17.3128 134.619 16.7839 133.929 16.7839ZM147 22.5361V13.4015C147 12.7346 146.448 12.1594 145.758 12.1594C145.426 12.157 145.106 12.2864 144.869 12.5192C144.632 12.7519 144.496 13.0692 144.492 13.4015V17.7274C143.586 17.101 142.511 16.764 141.409 16.7612C138.303 16.7612 135.818 19.3842 135.818 22.5361C135.818 25.6427 138.303 28.2657 141.409 28.2657C142.56 28.2657 143.664 27.8746 144.538 27.2759C144.596 27.5563 144.749 27.8081 144.971 27.9886C145.194 28.169 145.472 28.2669 145.758 28.2657C146.447 28.2657 147 27.6896 147 27.0227V22.5361ZM143.572 20.2125C144.147 20.7878 144.492 21.6161 144.492 22.5361C144.492 23.4108 144.147 24.2382 143.572 24.8143C142.996 25.4123 142.26 25.757 141.409 25.757C140.581 25.757 139.821 25.4123 139.246 24.8143C138.671 24.2382 138.326 23.4108 138.326 22.5361C138.326 21.6161 138.671 20.7878 139.246 20.2125C139.822 19.6137 140.582 19.269 141.409 19.269C142.26 19.269 142.997 19.6146 143.572 20.2125Z" fill="#333333"/>
<path fill-rule="evenodd" clip-rule="evenodd" d="M16.004 7.47739C9.09149 7.47739 3.48545 13.0822 3.48545 19.996C3.48545 26.9098 9.09149 32.5146 16.004 32.5146C22.9178 32.5146 28.5227 26.9098 28.5227 19.996C28.5227 17.6028 27.852 15.3673 26.6871 13.4672C26.4572 13.0735 26.3912 12.6052 26.5033 12.1632C26.6154 11.7213 26.8965 11.3411 27.2863 11.1044C27.676 10.8678 28.143 10.7937 28.5868 10.8981C29.0306 11.0026 29.4157 11.2771 29.659 11.6627C31.1942 14.1708 32.0045 17.0553 32 19.996C32 28.8298 24.8391 35.992 16.004 35.992C7.17024 35.992 0.00805664 28.8298 0.00805664 19.996C0.00805664 11.1622 7.17024 4 16.004 4C16.2324 4 16.4585 4.04497 16.6694 4.13235C16.8804 4.21973 17.072 4.3478 17.2335 4.50925C17.3949 4.67071 17.523 4.86238 17.6104 5.07333C17.6978 5.28427 17.7427 5.51037 17.7427 5.73869C17.7427 5.96702 17.6978 6.19312 17.6104 6.40406C17.523 6.61501 17.3949 6.80668 17.2335 6.96814C17.072 7.12959 16.8804 7.25766 16.6694 7.34504C16.4585 7.43242 16.2324 7.47739 16.004 7.47739Z" fill="#00BDE3"/>
<path d="M23.3706 10.232C24.6258 10.232 25.6433 9.21444 25.6433 7.95925C25.6433 6.70406 24.6258 5.68652 23.3706 5.68652C22.1154 5.68652 21.0979 6.70406 21.0979 7.95925C21.0979 9.21444 22.1154 10.232 23.3706 10.232Z" fill="#FF9933"/>
<path fill-rule="evenodd" clip-rule="evenodd" d="M23.34 18.7457C23.5827 18.7457 23.8226 18.7966 24.0445 18.8949C24.2663 18.9933 24.4651 19.137 24.628 19.3168C24.791 19.4966 24.9145 19.7085 24.9906 19.9389C25.0667 20.1693 25.0938 20.413 25.07 20.6545C25.0601 20.7553 25.0414 20.855 25.0142 20.9526C24.9595 21.2693 24.9086 21.6108 24.8304 21.966C24.4592 23.6287 23.6258 25.1528 22.4262 26.3625C21.2266 27.5722 19.7096 28.4184 18.05 28.8035C16.3904 29.1886 14.6558 29.097 13.0461 28.5392C11.4363 27.9814 10.0169 26.9801 8.95143 25.6507C7.88595 24.3213 7.21776 22.718 7.02385 21.0254C6.82994 19.3328 7.1182 17.6198 7.85542 16.0839C8.59265 14.548 9.74882 13.2517 11.1907 12.3443C12.6326 11.4368 14.3016 10.9553 16.0052 10.9551C16.4664 10.9551 16.9086 11.1383 17.2347 11.4643C17.5607 11.7904 17.7439 12.2326 17.7439 12.6938C17.7439 13.1549 17.5607 13.5971 17.2347 13.9232C16.9086 14.2493 16.4664 14.4325 16.0052 14.4325C15.0842 14.4321 14.1774 14.6605 13.3664 15.097C12.5553 15.5335 11.8653 16.1646 11.3583 16.9335C10.8513 17.7025 10.5431 18.5853 10.4613 19.5027C10.3796 20.4201 10.527 21.3435 10.8901 22.1899C11.2533 23.0364 11.8209 23.7795 12.542 24.3524C13.2632 24.9254 14.1153 25.3104 15.0219 25.4729C15.9285 25.6353 16.8613 25.5702 17.7365 25.2832C18.6118 24.9963 19.4021 24.4966 20.0365 23.8289C20.0552 23.8102 20.0738 23.7916 20.0899 23.7717C21.5008 22.1982 20.6451 22.2231 19.4367 22.2231H17.7427C17.2816 22.2231 16.8393 22.0399 16.5132 21.7138C16.1872 21.3877 16.004 20.9455 16.004 20.4844C16.004 20.0232 16.1872 19.581 16.5132 19.2549C16.8393 18.9289 17.2816 18.7457 17.7427 18.7457H23.34Z" fill="#00BDE3"/>
</svg>
